<?xml version="1.0" encoding="UTF-8" standalone="no"?>
<svg width="142" height="29" viewBox="0 0 142 29" fill="none" xmlns="http://www.w3.org/2000/svg">
<path d="M36.44 11.1091C35.0136 8.72249 32.0426 8.02116 29.8041 9.54199C29.3896 9.82458 29.0282 10.1637 28.7246 10.5439L27.0017 9.17463C27.4331 8.98452 28.3294 8.56321 28.3897 8.30631C28.4258 8.15217 27.9656 8.04428 27.2644 7.99547L30.486 4.85875C30.5077 4.83563 30.5149 4.79966 30.5004 4.7714L29.6812 3.12212C29.6619 3.08359 29.6137 3.07588 29.5848 3.10414L26.2355 6.36417C25.2331 6.35646 23.45 6.50546 22.9368 6.16122C22.1175 5.61146 22.0212 4.80223 21.72 4.51194C21.4453 4.24733 21.0766 4.18825 21.0019 3.94163C20.9971 3.92621 21.0067 3.9108 21.0188 3.90823C21.1778 3.86456 22.0573 3.60252 22.2573 2.94743C22.4597 2.28721 22.0501 1.40862 21.9802 1.26732C21.9754 1.25705 21.9778 1.24163 21.985 1.23393L22.9223 0.363046C22.9416 0.345063 22.9272 0.311666 22.9031 0.314235L21.5296 0.494063C21.5296 0.494063 21.5127 0.494063 21.5055 0.483787C21.4332 0.381028 20.8863 -0.317732 19.7682 0.172942C18.4574 0.745823 18.6959 1.9404 18.6959 1.9404C18.8694 3.18635 19.2767 3.43297 19.9369 3.83887C19.9537 3.84914 19.961 3.87226 19.9465 3.88511C19.52 4.26275 15.2406 8.01088 11.2865 9.47263C11.2191 9.49832 11.2166 9.59594 11.2817 9.62676C12.4287 10.156 15.8575 9.87339 16.8743 9.24399C16.8936 9.23114 16.9177 9.25169 16.9105 9.27482C16.7996 9.72439 16.202 12.373 17.149 13.1951C17.1659 13.2105 17.1827 13.2233 17.1996 13.2362L15.9274 14.1944C15.6551 14.3999 15.8165 14.8572 16.149 14.8187L16.8044 14.7442C17.2285 14.6954 17.6237 14.4975 17.9273 14.179L18.1442 13.9503L19.9923 15.4198L19.7465 17.5058C18.7803 17.4493 17.7875 17.7036 16.908 18.2996C14.6696 19.8205 14.0117 22.988 15.4358 25.3746C16.8623 27.7611 19.8333 28.4625 22.0718 26.9442C24.2115 25.4902 24.9078 22.5307 23.7175 20.1878L24.1898 19.8667C24.5681 20.2212 25.1343 20.2854 25.5801 19.9823C26.0186 19.6843 26.2066 19.1243 26.0789 18.6156L28.0354 18.0068C28.1969 17.9579 28.2933 17.7833 28.2571 17.6086L28.2427 17.5392C28.2113 17.3825 28.0812 17.2695 27.9294 17.2695L26.2668 17.2746C26.2668 17.2746 26.2475 17.2695 26.2427 17.2592L25.7439 16.0543L26.7367 9.83228L28.3342 11.1014C27.3559 12.7301 27.2885 14.8829 28.327 16.6195C29.7535 19.0061 32.7245 19.7074 34.963 18.1866C37.2015 16.6658 37.8593 13.4982 36.4328 11.1116M23.1151 7.42772L25.3801 7.38662L25.6765 7.98262C25.1536 8.00317 24.6042 8.04685 24.0765 8.11621C23.6934 8.16759 23.2308 7.64352 23.0958 7.4791C23.079 7.45855 23.0934 7.42772 23.1175 7.42772M19.6935 11.0423C19.8839 10.7057 20.9802 8.75331 21.12 8.08795C21.1248 8.06483 21.1513 8.05969 21.1634 8.07767C21.8959 8.98709 23.4404 9.50859 23.5609 9.54713C23.5657 9.54713 23.5705 9.54713 23.5753 9.54713L25.5608 8.89461L26.0042 9.24656L23.9271 11.2786C23.7416 11.0962 23.4838 10.9524 23.1199 10.9035C21.9248 10.7391 20.0574 11.0269 19.72 11.0834C19.6983 11.0859 19.6839 11.0628 19.6959 11.0423M24.8283 17.7062C24.6958 17.7216 24.5657 17.7601 24.4428 17.8269L23.0235 16.6709C23.0235 16.6709 23.0115 16.6503 23.0163 16.6375L23.7271 15.0704C23.7368 15.0499 23.7609 15.0499 23.7705 15.0679L24.9391 17.01L24.8283 17.7062V17.7062ZM21.8188 16.0081L20.8453 15.2348L22.7055 13.4134L21.8188 16.0081V16.0081ZM21.8284 13.3364L20.32 14.8161L18.8068 13.6138C19.8164 13.6421 21.0115 13.4802 21.8308 13.3389M20.5947 15.8951L21.5898 16.6863L21.4694 17.0357C21.385 17.2823 21.5055 17.5572 21.7368 17.6471L23.8139 18.4538L23.8765 18.5026C23.7898 18.7492 23.7777 19.0241 23.85 19.2835L23.3802 19.6021C22.638 18.5154 21.5585 17.8244 20.3971 17.588L20.5971 15.8925L20.5947 15.8951ZM20.2718 18.6439C21.1513 18.8391 21.9681 19.3632 22.5416 20.175L19.8815 21.981L20.2742 18.6439H20.2718ZM21.5465 26.0528C19.773 27.2576 17.4092 26.7002 16.2791 24.8094C15.1491 22.9186 15.6719 20.3985 17.4478 19.1936C18.1225 18.7338 18.8839 18.5334 19.6309 18.5617L19.1538 22.6232C19.1393 22.7568 19.1971 22.8852 19.3008 22.9572C19.4068 23.0291 19.5417 23.0291 19.6477 22.9572L22.8862 20.7581C23.7826 22.6052 23.2235 24.9147 21.5465 26.0528M24.3801 12.7455C24.3801 12.7455 24.3801 12.7352 24.3801 12.7327C24.3849 12.6761 24.4163 12.2831 24.2862 11.8746L26.0403 10.156L25.2813 14.9111L24.3849 12.7455H24.3801ZM34.4377 17.2977C32.6642 18.5026 30.3004 17.9451 29.1704 16.0518C28.3607 14.6979 28.3993 13.0204 29.139 11.7359L32.1606 14.1379C32.2715 14.2252 32.4185 14.2278 32.5269 14.1533C32.5582 14.1327 32.5871 14.1045 32.6112 14.0685C32.7172 13.9144 32.6883 13.6986 32.5462 13.5856L29.5222 11.181C29.7535 10.901 30.0258 10.6492 30.3366 10.436C32.11 9.23114 34.4738 9.78861 35.6039 11.6819C36.734 13.5727 36.2111 16.0929 34.4353 17.2977" fill="black"/>
<path d="M24.7291 5.52435L25.8471 5.59371C25.9001 5.59628 25.9507 5.5783 25.9893 5.53976L28.7506 2.77812C28.782 2.74729 28.7627 2.6882 28.7193 2.68563L27.635 2.61884C27.5555 2.6137 27.4784 2.64453 27.4205 2.70105L24.6977 5.42416C24.6616 5.45756 24.6833 5.52178 24.7315 5.52435" fill="black"/>
<path d="M10.118 22.834L8.35183 23.9772L6.67718 22.5206L7.20728 24.753L5.48926 25.9784L7.58317 26.2148L8.19521 28.4266L8.95904 26.3406L11.0554 26.4845L9.43373 24.956L10.118 22.834Z" fill="black"/>
<path d="M12.1766 14.788L10.4104 15.9312L8.73577 14.4746L9.26588 16.707L7.54785 17.9324L9.64177 18.1688L10.2538 20.3807L11.0176 18.2947L13.1164 18.4385L11.4947 16.91L12.1766 14.788Z" fill="black"/>
<path d="M3.94688 19.1039L4.62879 16.9819L2.86257 18.1251L1.18792 16.6685L1.71802 18.9035L0 20.1264L2.09392 20.3627L2.70595 22.5746L3.46978 20.4886L5.56852 20.6324L3.94688 19.1039Z" fill="black"/>
<path d="M48.2188 21.6445V5.88898H54.3704C57.0161 5.88898 58.7365 7.96985 58.7365 10.6801C58.7365 13.3904 57.0161 15.4712 54.3704 15.4712H50.5705V21.6496H48.2188V21.6445ZM50.5705 8.01352V13.3621H54.2644C55.4402 13.3621 56.3848 12.0853 56.3848 10.675C56.3848 9.26461 55.4402 8.01095 54.2644 8.01095H50.5705V8.01352Z" fill="black"/>
<path d="M70.602 18.3101C71.3586 18.1534 72.0935 17.9966 72.8261 17.8631C72.973 18.7596 73.4766 19.8335 75.1778 19.8335C75.5561 19.8335 77.4235 19.6768 77.4235 18.2433C77.4235 15.5356 70.9153 18.3332 70.9153 13.4753C70.9153 11.5511 72.72 10.0945 74.9874 10.0945C77.2548 10.0945 79.1873 11.1015 79.5006 13.632C78.744 13.7655 78.009 13.9223 77.2765 14.079C77.1295 12.6686 76.3103 12.1548 75.0501 12.1548C73.9369 12.1548 73.1803 12.7816 73.1803 13.4753C73.1803 14.3924 73.9778 14.639 75.238 14.7726C77.6307 15.0398 79.6692 15.5998 79.6692 18.2433C79.6692 20.617 77.7175 21.8681 75.1754 21.8681C72.4453 21.8681 70.8936 20.3447 70.5996 18.3101" fill="black"/>
<path d="M80.2656 12.1547V10.3204H82.0921V7.05267H84.3595V10.3204H86.5642V12.1547H84.3595V18.5797C84.3595 19.4762 84.6125 19.7434 85.3474 19.7434C85.6631 19.7434 86.3546 19.6997 86.3546 19.6997V21.647C86.3546 21.647 85.5426 21.7369 84.7378 21.7369C82.7427 21.7369 82.0921 20.5963 82.0921 18.4255V12.1572H80.2656V12.1547Z" fill="black"/>
<path d="M94.4591 15.3325C94.4591 13.6087 94.1025 12.1547 92.4014 12.1547C90.7002 12.1547 90.3436 13.6087 90.3436 15.3325V21.6445H88.0762V10.3204H90.1339L90.3436 11.551C90.6592 10.9241 91.9194 10.0969 93.158 10.0969C94.9218 10.0969 95.7603 11.1271 96.1193 11.7976C96.6856 10.7905 98.0711 10.0969 99.3096 10.0969C102.206 10.0969 103.088 11.9774 103.088 15.3351V21.647H100.842V15.3351C100.842 13.6344 100.401 12.1341 98.7843 12.1341C97.0832 12.1341 96.7265 13.5882 96.7265 15.3351V21.647H94.4591V15.3351V15.3325Z" fill="black"/>
<path d="M107.203 14.215C106.468 14.0814 105.712 13.9016 104.957 13.768C105.189 11.2607 107.119 10.0969 109.345 10.0969C112.348 10.0969 113.902 11.664 113.902 14.7519V18.6901C113.902 19.3606 114.027 19.7434 114.468 19.7434C114.637 19.7434 114.909 19.6997 115.015 19.6535V21.6239C114.364 21.8037 113.945 21.8037 113.67 21.8037C112.579 21.8037 111.991 21.1101 111.822 20.193C111.403 20.753 110.29 21.8269 108.504 21.8731C106.049 21.8731 104.579 20.4191 104.579 18.2688C104.579 16.5014 106.112 14.8881 108.904 14.8881H111.634V14.2176C111.634 13.3441 111.297 12.1598 109.345 12.1598C108.044 12.1598 107.247 12.8534 107.203 14.2176M111.632 17.2618V16.7018H109.133C107.266 16.7018 106.887 17.7088 106.887 18.2688C106.887 19.0292 107.369 19.8359 108.755 19.8359C110.603 19.8359 111.632 18.4923 111.632 17.2618" fill="black"/>
<path d="M64.2605 21.8911C61.2148 21.8911 58.7354 19.2502 58.7354 16.0005C58.7354 12.7507 61.2124 10.1098 64.2605 10.1098C67.3086 10.1098 69.7832 12.7507 69.7832 16.0005C69.7832 19.2502 67.3062 21.8911 64.2605 21.8911ZM64.2605 12.3551C62.3738 12.3551 60.8389 13.9915 60.8389 16.003C60.8389 18.0145 62.3738 19.651 64.2605 19.651C66.1472 19.651 67.6797 18.0145 67.6797 16.003C67.6797 13.9915 66.1448 12.3551 64.2605 12.3551" fill="black"/>
<path d="M129.123 17.7088C129.817 17.9092 130.508 18.1327 131.202 18.3587C130.72 19.9926 129.27 21.8731 126.373 21.8731C123.477 21.8731 121.376 19.4788 121.376 15.985C121.376 12.4912 123.308 10.0969 126.267 10.0969C129.226 10.0969 131.053 12.2009 131.053 15.6254C131.053 15.9619 131.053 16.319 131.012 16.6992H123.728C123.769 18.3562 124.841 19.8333 126.373 19.8333C127.487 19.8333 128.578 19.2733 129.123 17.7062M128.641 14.8855C128.578 13.208 127.822 12.1316 126.267 12.1316C124.713 12.1316 123.896 13.4751 123.831 14.8855H128.638H128.641Z" fill="black"/>
<path d="M132.041 18.3125C132.798 18.1558 133.533 17.9991 134.267 17.8655C134.414 18.7621 134.918 19.8359 136.619 19.8359C136.998 19.8359 138.865 19.6792 138.865 18.2457C138.865 15.538 132.357 18.3356 132.357 13.4777C132.357 11.5535 134.161 10.0969 136.429 10.0969C138.696 10.0969 140.626 11.104 140.942 13.6344C140.185 13.768 139.45 13.9247 138.718 14.0814C138.571 12.671 137.752 12.1572 136.492 12.1572C135.378 12.1572 134.624 12.7841 134.624 13.4777C134.624 14.3948 135.422 14.6414 136.682 14.775C139.075 15.0422 141.113 15.6022 141.113 18.2457C141.113 20.6169 139.161 21.8705 136.619 21.8705C133.889 21.8705 132.337 20.3471 132.043 18.3125" fill="black"/>
<path d="M114.68 12.1546V10.3203H116.506V7.05261H118.774V10.3203H120.978V12.1546H118.774V18.5796C118.774 19.4762 119.027 19.7433 119.761 19.7433C120.077 19.7433 120.769 19.6997 120.769 19.6997V21.647C120.769 21.647 119.957 21.7369 119.152 21.7369C117.157 21.7369 116.506 20.5962 116.506 18.4255V12.1572H114.68V12.1546Z" fill="black"/>
</svg>
