<?xml version="1.0" encoding="UTF-8" standalone="no"?>
<svg width="63" height="38" viewBox="0 0 63 38" fill="none" xmlns="http://www.w3.org/2000/svg">
<path fill-rule="evenodd" clip-rule="evenodd" d="M51.7287 13.0959C52.6671 12.6799 53.674 12.4661 54.6909 12.467V12.4339C58.9272 12.4339 62.3614 16.0793 62.3614 20.5761C62.3614 25.0729 58.9272 28.7182 54.6909 28.7182H33.4361C32.9699 28.668 32.6127 28.2557 32.6046 27.7584V1.93075C32.615 1.45634 32.7605 1.21362 33.3425 0.970897C34.9081 0.331405 36.5709 0.00232659 38.2483 1.59228e-05C45.263 -0.0109834 51.119 5.67795 51.7287 13.0959ZM31.4612 2.04078C31.1568 1.84388 30.7679 1.87495 30.4946 2.11801C30.3012 2.28638 30.1871 2.5365 30.1828 2.80204V2.8903L29.8398 21.1385L30.0165 24.5145L30.1828 27.8243C30.1828 28.3209 30.5621 28.7235 31.0299 28.7235C31.4977 28.7235 31.877 28.3209 31.877 27.8243L32.2511 21.2047L31.877 2.80204C31.8718 2.48902 31.7146 2.20108 31.4612 2.04078ZM28.0423 3.62969C28.3028 3.44239 28.6445 3.44239 28.905 3.62969H28.853C29.07 3.78693 29.2017 4.04598 29.2064 4.32475L29.5702 21.1056L29.2688 27.1846V27.8576C29.2652 28.0816 29.1794 28.2954 29.0297 28.4534C28.8837 28.6086 28.6855 28.6959 28.4789 28.6961C28.0566 28.6909 27.7109 28.3383 27.689 27.8907L27.3875 21.1386L27.6786 4.49024V4.33578C27.6804 4.05051 27.8171 3.78529 28.0423 3.62969ZM21.2128 6.13451C21.2128 5.76283 20.9289 5.46151 20.5788 5.46151C20.2286 5.46151 19.9448 5.76283 19.9448 6.13451L19.5498 21.1832L19.9448 28.0897C19.9448 28.4614 20.2286 28.7627 20.5788 28.7627C20.9289 28.7627 21.2128 28.4614 21.2128 28.0897L21.6597 21.1832L21.2128 6.13451ZM17.4213 6.56428C17.4269 6.22738 17.6859 5.95743 18.0033 5.95748L18.0137 6.01264C18.3311 6.01259 18.5901 6.28254 18.5957 6.61944L19.053 21.1165L18.5749 28.0671C18.5361 28.3737 18.2896 28.6026 17.9981 28.6026C17.7066 28.6026 17.4601 28.3737 17.4213 28.0671L16.9951 21.1165L17.4213 6.56428ZM15.4337 7.1826C15.145 7.18255 14.9093 7.4278 14.9036 7.73424L14.4463 21.1721L14.9036 28.1889C14.9534 28.4517 15.1708 28.6407 15.4233 28.6407C15.6758 28.6407 15.8932 28.4517 15.943 28.1889L16.4627 21.1611L15.943 7.72321C15.9373 7.41677 15.7016 7.17151 15.4129 7.17157L15.4337 7.1826ZM12.4729 10.2053C12.4785 9.93353 12.6847 9.71464 12.9407 9.7088V9.69776C13.1945 9.709 13.3978 9.92483 13.4084 10.1942L13.9696 21.1387L13.4188 28.1997C13.4188 28.4769 13.207 28.7017 12.9459 28.7017C12.6847 28.7017 12.4729 28.4769 12.4729 28.1997L11.9845 21.1387L12.4729 10.2053ZM7.6175 13.8794C7.62294 13.6686 7.78267 13.4991 7.98128 13.4933L7.95009 13.5043C8.14487 13.5098 8.30311 13.6729 8.31387 13.8794L8.96866 21.128L8.34505 28.1337C8.34505 28.347 8.18218 28.5199 7.98128 28.5199C7.78037 28.5199 7.6175 28.347 7.6175 28.1337L7.06664 21.128L7.6175 13.8794ZM5.46615 13.747C5.30003 13.7523 5.16499 13.8909 5.15434 14.0669L4.5723 21.1168L5.19592 27.913C5.19592 28.0958 5.33552 28.244 5.50772 28.244C5.67993 28.244 5.81953 28.0958 5.81953 27.913L6.48472 21.1168L5.81953 14.0669C5.80888 13.8909 5.67384 13.7523 5.50772 13.747H5.46615ZM3.2745 15.1813C3.264 15.0357 3.15214 14.9217 3.01466 14.9165C2.87718 14.9217 2.76532 15.0357 2.75482 15.1813L2.1416 21.1279L2.75482 26.9422C2.75482 27.0945 2.87116 27.218 3.01466 27.218C3.15817 27.218 3.2745 27.0945 3.2745 26.9422L3.97087 21.1279L3.2745 15.1813ZM0.457317 17.4427C0.467775 17.3032 0.575007 17.1941 0.706762 17.1889C0.838517 17.1941 0.94575 17.3032 0.956208 17.4427L1.49667 21.1056L0.956208 24.7243C0.94575 24.8638 0.838517 24.9729 0.706762 24.9781C0.575007 24.9729 0.467775 24.8638 0.457317 24.7243L0 21.1166L0.457317 17.4427ZM10.8625 14.4085C10.8625 14.1617 10.674 13.9617 10.4416 13.9617C10.2091 13.9617 10.0206 14.1617 10.0206 14.4085L9.50094 21.1274L10.0206 28.1884C10.0206 28.4352 10.2091 28.6352 10.4416 28.6352C10.674 28.6352 10.8625 28.4352 10.8625 28.1884L11.4549 21.1274L10.8625 14.4085ZM22.4919 6.47614C22.4919 6.07399 22.7991 5.74798 23.1779 5.74798H23.2195C23.5943 5.74794 23.8998 6.06728 23.9055 6.46511L24.2692 21.1387L23.8639 27.979C23.8639 28.3811 23.5568 28.7071 23.1779 28.7071C22.7991 28.7071 22.4919 28.3811 22.4919 27.979L22.1282 21.1387L22.4919 6.47614ZM25.8284 6.22234C25.8214 6.22234 25.8144 6.22244 25.8075 6.22264L25.7975 6.22242L25.7868 6.22234H25.8284ZM25.8075 6.22264C25.9957 6.22824 26.1751 6.31005 26.3086 6.45177C26.447 6.59867 26.5247 6.79791 26.5247 7.00566L26.9405 21.1276L26.5663 27.9237C26.5663 28.3564 26.2359 28.7071 25.8284 28.7071C25.4208 28.7071 25.0904 28.3564 25.0904 27.9237L24.7578 21.1276L25.0904 7.00566C25.0904 6.58046 25.4096 6.23438 25.8075 6.22264ZM6.123 33.5947C7.02724 33.8153 8.01462 34.1463 8.01462 35.4482C8.01462 36.75 7.32865 37.3679 5.7904 37.3679C4.93005 37.4053 4.10697 36.9931 3.58697 36.2646L4.40806 35.4923C4.77029 35.9427 5.3055 36.1943 5.86316 36.1763C6.53874 36.1763 6.90251 35.9778 6.90251 35.5254C6.90251 35.0731 6.70504 34.9627 5.6345 34.709C4.56396 34.4552 3.8572 34.1022 3.8572 32.9106C3.8572 31.7191 4.76144 31.1454 5.88394 31.1454C6.67397 31.1252 7.43302 31.4717 7.96266 32.0942L7.14157 32.9327C6.81406 32.5419 6.34551 32.3173 5.85276 32.3149C5.24994 32.3149 5.04207 32.5907 5.04207 32.8555C5.04207 33.1203 5.28112 33.352 6.18536 33.5726L6.123 33.5947ZM13.8438 34.2453C13.8438 32.4139 12.9291 31.1451 11.3805 31.1451C9.83185 31.1451 8.91722 32.4139 8.91722 34.2453C8.91722 36.0767 9.83185 37.3455 11.3805 37.3455C12.9291 37.3455 13.8438 36.0767 13.8438 34.2453ZM11.3812 36.1544C12.2959 36.1544 12.6804 35.3159 12.6804 34.2457C12.6804 33.1755 12.2959 32.337 11.3812 32.337C10.4666 32.337 10.082 33.1755 10.082 34.2457C10.082 35.3159 10.4666 36.1544 11.3812 36.1544ZM19.5498 31.2337H18.4169L18.4065 34.5877C18.4065 35.5475 17.9596 36.1433 17.2424 36.1433C16.5253 36.1433 16.0888 35.5255 16.0888 34.5656V31.2558H14.9559V34.5546C14.8605 35.2541 15.0611 35.9627 15.5042 36.4904C15.9472 37.0181 16.5872 37.311 17.2528 37.2907C18.6871 37.2907 19.5498 36.2867 19.5498 34.5435V31.2337ZM24.4466 31.2337H25.5691V37.2466H24.5298L22.4511 33.9367C22.3159 33.7161 22.1289 33.4072 22.0561 33.2527V34.5656V37.2135H20.9336V31.2558H21.9729L23.9789 34.4332C24.114 34.6539 24.3011 34.9628 24.3739 35.1172V33.8044L24.4466 31.2337ZM30.9049 32.005C30.3537 31.4155 29.5761 31.1305 28.7996 31.2334V31.2555H27.0224V37.2573H28.7165C29.4917 37.3224 30.2556 37.0284 30.8115 36.4511C31.3673 35.8738 31.6608 35.0695 31.6163 34.2453C31.7189 33.4219 31.4562 32.5945 30.9049 32.005ZM28.7176 36.1103C29.1923 36.1673 29.6657 35.9915 30.0036 35.6329C30.3414 35.2743 30.507 34.7718 30.4533 34.2679C30.4533 33.0322 29.9544 32.4254 28.7591 32.4254H28.1563V36.0993H28.7176V36.1103ZM33.7898 34.2564C33.7898 33.1421 34.2783 32.3477 35.1306 32.3477L35.1617 32.3698C35.6035 32.3292 36.0209 32.5906 36.2011 33.0207L37.2405 32.5022C36.8755 31.6425 36.0484 31.1114 35.1617 31.1672C34.4298 31.1928 33.7414 31.5426 33.2635 32.1316C32.7856 32.7207 32.5618 33.4952 32.6465 34.2674C32.6465 36.165 33.6339 37.3676 35.1202 37.3676C36.0103 37.4133 36.8357 36.8745 37.1989 36.0106L36.2427 35.4038C36.0524 35.8741 35.6126 36.1751 35.1306 36.165C34.2887 36.165 33.7898 35.3707 33.7898 34.2564ZM39.3179 36.0992H41.5733V37.2908H38.1642V31.2559H39.2971L39.3179 36.0992ZM47.0419 34.2788C47.0419 32.4474 46.1273 31.1786 44.5786 31.1786C43.03 31.1786 42.1154 32.4474 42.1154 34.2788C42.1154 36.1102 43.03 37.379 44.5786 37.379C46.1273 37.379 47.0419 36.1102 47.0419 34.2788ZM44.5795 36.1877C45.4941 36.1877 45.8787 35.3492 45.8787 34.2791C45.8787 33.2089 45.4941 32.3704 44.5795 32.3704C43.6648 32.3704 43.2803 33.2089 43.2803 34.2791C43.2803 35.3492 43.6648 36.1877 44.5795 36.1877ZM52.748 31.2669H51.6151V34.5878C51.6151 35.5476 51.1785 36.1434 50.451 36.1434C49.7234 36.1434 49.2869 35.5255 49.2869 34.5657V31.2559H48.154V34.5878C48.0586 35.2873 48.2593 35.9958 48.7023 36.5236C49.1453 37.0513 49.7854 37.3442 50.451 37.3239C51.8853 37.3239 52.748 36.3199 52.748 34.5767V31.2669ZM55.9381 31.2662C56.7146 31.1633 57.4921 31.4483 58.0434 32.0378C58.5946 32.6273 58.8574 33.4547 58.7547 34.2782C58.7992 35.1023 58.5057 35.9066 57.9499 36.4839C57.3941 37.0612 56.6302 37.3552 55.8549 37.2901H54.1504V31.2552H55.9277L55.9381 31.2662ZM57.1312 35.6329C56.7934 35.9915 56.32 36.1673 55.8452 36.1103V36.0993H55.284V32.4254H55.8868C57.0821 32.4254 57.581 33.0322 57.581 34.2679C57.6346 34.7718 57.4691 35.2743 57.1312 35.6329Z" fill="url(#paint0_linear_1349_386)"/>
<defs>
<linearGradient id="paint0_linear_1349_386" x1="1.28847" y1="1.34601" x2="1.28847" y2="37.1804" gradientUnits="userSpaceOnUse">
<stop stop-color="#F79610"/>
<stop offset="1" stop-color="#F8330E"/>
</linearGradient>
</defs>
</svg>
