<?xml version="1.0" encoding="UTF-8" standalone="no"?>
<svg width="159" height="42" viewBox="0 0 159 42" fill="none" xmlns="http://www.w3.org/2000/svg">
<path d="M69.8497 27.6998V7.02473C69.8497 3.57448 67.0579 0.756348 63.5813 0.756348H7.21857C3.76833 0.756348 0.950195 3.54815 0.950195 7.02473V27.6998C0.950195 31.1501 3.74199 33.9682 7.21857 33.9682H48.0157L59.0775 41.3428L56.8652 33.9682H63.6076C67.0315 33.9682 69.8497 31.1501 69.8497 27.6998Z" fill="#315CFD"/>
<path d="M12.8279 21.537C13.144 22.1165 13.5917 22.5642 14.1185 22.8276C14.6715 23.1436 15.251 23.2753 15.9358 23.2753C16.6205 23.2753 17.2263 23.1173 17.7531 22.8012C18.3062 22.4852 18.7539 22.0374 19.0436 21.458C19.3597 20.8786 19.544 20.2201 19.544 19.4564V10.1591C19.544 10.0274 19.5967 9.9221 19.6757 9.84308C19.7547 9.76407 19.8601 9.7114 19.9918 9.7114H22.2568C22.3885 9.7114 22.5202 9.76407 22.5992 9.84308C22.6519 9.89576 22.6782 9.94844 22.7046 9.97477C22.7309 10.0274 22.7572 10.1065 22.7309 10.1591V19.43C22.7309 20.9049 22.4148 22.1428 21.8091 23.17C21.2033 24.1708 20.3868 24.9083 19.3597 25.3823C18.3325 25.8828 17.1736 26.0935 15.9358 26.0935C14.6979 26.0935 13.539 25.8564 12.5119 25.356C11.4847 24.8556 10.6682 24.1181 10.0624 23.1173C9.45668 22.1165 9.14062 20.8786 9.14062 19.4037V10.1591C9.14062 10.0274 9.1933 9.94844 9.27231 9.84308C9.32499 9.79041 9.35133 9.76407 9.404 9.73773C9.45668 9.7114 9.50935 9.68506 9.56203 9.68506H11.9324C12.0641 9.68506 12.1958 9.73773 12.2485 9.81675C12.3012 9.89576 12.3538 10.0011 12.3538 10.1328V19.43C12.3538 20.2728 12.5119 20.9576 12.8279 21.537Z" fill="white"/>
<path d="M47.8053 21.9848C47.937 21.9848 48.016 22.0375 48.0687 22.1165L49.1749 23.4861C49.2539 23.6177 49.3066 23.6968 49.3066 23.8021C49.3066 23.9338 49.2539 24.0128 49.1486 24.1182C48.3321 24.8293 47.542 25.3297 46.7255 25.6721C45.9354 25.9881 45.0662 26.1462 44.1444 26.1462C42.9065 26.1462 41.7213 25.8301 40.6415 25.198C39.5353 24.5396 38.6661 23.6968 38.0077 22.5906C37.3493 21.4844 37.0332 20.3255 37.0332 19.035C37.0332 17.7444 37.3493 16.5329 37.955 15.4531C38.5608 14.3469 39.4036 13.5041 40.4834 12.8456C41.5633 12.1872 42.7485 11.8975 44.0917 11.8975C45.1716 11.8975 46.2251 12.1608 47.2786 12.6876C48.3321 13.2143 49.2012 14.0045 49.9123 15.0843C50.5971 16.1642 50.9395 17.4811 50.9395 19.035C50.9395 19.3774 50.8868 19.6408 50.8078 19.7988C50.7288 19.9568 50.5971 20.0622 50.4918 20.0885C50.3601 20.1412 50.1231 20.1412 49.8333 20.1412H40.0884C40.2201 20.7996 40.5098 21.3527 40.9048 21.8531C41.2999 22.3535 41.774 22.7223 42.3534 22.9856C42.9329 23.249 43.5386 23.3807 44.1707 23.3807C44.6711 23.3807 45.0925 23.328 45.4876 23.2227C45.8563 23.1173 46.1461 23.012 46.4094 22.854C46.6991 22.6959 46.9625 22.5116 47.1996 22.3009L47.5156 22.0638C47.621 21.9848 47.7263 21.9848 47.8053 21.9848Z" fill="white"/>
<path d="M42.4321 14.9262C41.9053 15.1896 41.4576 15.5583 41.0625 16.0061C40.6674 16.4538 40.4041 16.9542 40.1934 17.5337H47.9366C47.6206 16.6382 47.0938 15.9007 46.4354 15.3476C45.777 14.7945 44.9605 14.5312 44.0913 14.5312C43.5119 14.5048 42.9588 14.6629 42.4321 14.9262Z" fill="#315CFD"/>
<path d="M24.8652 23.1435C24.8652 23.1962 24.8916 23.2752 24.9179 23.3543C24.9706 23.4333 24.9969 23.5123 25.0496 23.5913C25.55 24.3814 26.2611 25.0135 27.1039 25.4613C27.9467 25.909 28.9212 26.1197 30.0011 26.1197C30.8439 26.1197 31.6867 25.9617 32.4768 25.6456C33.267 25.3296 33.8991 24.8555 34.3995 24.1971C34.8999 23.565 35.1369 22.8012 35.1369 21.8793C35.1369 20.9575 34.8209 20.062 34.2151 19.2982C33.6094 18.5344 32.6875 17.9814 31.4497 17.5863C31.2916 17.5336 31.1336 17.4809 31.0019 17.4546C30.8702 17.4019 30.7385 17.3756 30.6332 17.3493C30.0274 17.1912 29.5797 17.0332 29.29 16.9278C29.0003 16.7962 28.7632 16.6645 28.6052 16.5064C28.4208 16.3221 28.3418 16.1114 28.3418 15.7953C28.3418 15.4003 28.4998 15.1105 28.8422 14.8735C29.1583 14.6365 29.606 14.5048 30.1855 14.5048C30.7649 14.5048 31.1863 14.6101 31.555 14.7945C31.9237 14.9789 32.2661 15.2949 32.6085 15.6636C32.7402 15.7953 32.8192 15.8743 32.9509 15.8743C33.0299 15.8743 33.1353 15.8217 33.2406 15.7427L34.5312 14.6891C34.6629 14.5575 34.7419 14.4784 34.7419 14.3731C34.7419 14.2941 34.6892 14.1624 34.5839 14.0044C34.0834 13.3986 33.4777 12.8718 32.7666 12.4504C32.0291 12.029 31.1599 11.8183 30.1328 11.8183C29.1846 11.8183 28.3418 12.0027 27.6044 12.3978C26.8669 12.7928 26.3138 13.2669 25.9187 13.8727C25.5237 14.4784 25.3393 15.0842 25.3393 15.7163C25.3393 16.4801 25.471 17.1649 25.7871 17.718C26.1031 18.2711 26.5508 18.7451 27.1566 19.1139C27.7624 19.5089 28.5525 19.8513 29.5533 20.141C29.9748 20.2727 30.2381 20.3518 30.3171 20.3518C30.8176 20.4834 31.1599 20.6151 31.397 20.7205C31.634 20.8258 31.8184 20.9312 31.9501 21.1155C32.0818 21.2999 32.1608 21.5369 32.1608 21.8793C32.1608 22.1954 32.0291 22.4588 31.8184 22.7221C31.5814 22.9592 31.2916 23.1435 30.9229 23.3016C30.5805 23.4333 30.1855 23.5123 29.8167 23.5123C29.211 23.5123 28.7105 23.3806 28.2891 23.0909C27.8941 22.8012 27.499 22.4324 27.1566 21.932C27.0249 21.774 26.9196 21.695 26.7615 21.695C26.6825 21.695 26.6035 21.7477 26.5245 21.774L25.1286 22.7748C24.9179 22.8802 24.8652 22.9855 24.8652 23.1435ZM55.4433 12.0027H53.8894C53.5997 12.0027 53.468 12.1607 53.468 12.4768V25.4349C53.468 25.751 53.5997 25.8827 53.8894 25.8827H56.1281C56.4442 25.8827 56.5758 25.751 56.5758 25.4349V17.8233C56.5758 17.1386 56.7075 16.5591 56.9709 16.085C57.2343 15.611 57.5503 15.2686 57.9981 15.0579C58.3932 14.8472 58.8409 14.7155 59.315 14.7155C59.7891 14.7155 60.2105 14.7945 60.6055 14.9525C61.0006 15.1369 61.3957 15.3476 61.7644 15.5846C61.8961 15.6636 62.0014 15.7163 62.1068 15.7163C62.2385 15.7163 62.3175 15.6636 62.4228 15.5319L63.45 14.0834C63.529 13.978 63.5817 13.8727 63.5817 13.7673C63.5817 13.6356 63.5027 13.4776 63.3446 13.3196C62.9496 12.9772 62.4228 12.6348 61.7644 12.2924C61.1323 11.9764 60.4475 11.792 59.6837 11.792C58.9989 11.792 58.3668 11.95 57.7874 12.2924C57.208 12.6085 56.7602 13.0562 56.3915 13.662L56.1808 12.4504C56.1281 12.2397 56.0754 12.0817 55.9701 12.029C55.7857 12.029 55.654 12.0027 55.4433 12.0027Z" fill="white"/>
<path d="M73.853 9.73769H85.4679C85.7577 9.73769 85.8894 9.86938 85.8894 10.1591V12.2134C85.8894 12.5031 85.7577 12.6612 85.4679 12.6612H81.1749V25.435C81.1749 25.7247 81.0432 25.8564 80.7535 25.8564H78.4094C78.1197 25.8564 77.988 25.7247 77.988 25.435V12.6348H73.8267C73.537 12.6348 73.4053 12.5031 73.4053 12.1871V10.1591C73.4053 9.89571 73.5633 9.73769 73.853 9.73769ZM96.2664 21.9847C96.3981 21.9847 96.4771 22.0374 96.5298 22.1164L97.636 23.486C97.715 23.6177 97.7677 23.6967 97.7677 23.802C97.7677 23.9337 97.715 24.0127 97.6096 24.1181C96.7932 24.8292 96.003 25.3296 95.1866 25.672C94.3701 25.9881 93.5273 26.1461 92.6055 26.1461C91.3676 26.1461 90.1824 25.83 89.1026 25.1979C87.9964 24.5395 87.1272 23.6967 86.4688 22.5905C85.8103 21.4843 85.4943 20.3255 85.4943 19.0349C85.4943 17.7444 85.8103 16.5328 86.4161 15.453C87.0219 14.3468 87.8647 13.504 88.9445 12.8455C90.0244 12.1871 91.2096 11.8974 92.5528 11.8974C93.6326 11.8974 94.7125 12.1608 95.7397 12.6875C96.7932 13.2143 97.6623 14.0044 98.3734 15.0842C99.0582 16.1641 99.4006 17.481 99.4006 19.0349C99.4006 19.3773 99.3479 19.6407 99.2689 19.7987C99.1899 19.9567 99.0582 20.0621 98.9529 20.0884C98.8212 20.1411 98.5841 20.1411 98.2944 20.1411H88.5495C88.6812 20.7995 88.9709 21.3526 89.3659 21.853C89.761 22.3535 90.2351 22.7222 90.8145 22.9856C91.3939 23.2489 91.9997 23.3806 92.6581 23.3806C93.1586 23.3806 93.58 23.328 93.975 23.2226C94.3438 23.1173 94.6335 23.0119 94.8969 22.8539C95.1866 22.6958 95.4499 22.5115 95.687 22.3008L96.003 22.0637C96.082 21.9847 96.1874 21.9847 96.2664 21.9847ZM90.8672 14.9262C90.3404 15.1896 89.8927 15.5583 89.4976 16.0061C89.1026 16.4538 88.8392 16.9542 88.6285 17.5337H96.3981C96.082 16.6382 95.5553 15.9007 94.8969 15.3476C94.2384 14.7945 93.4219 14.5312 92.5265 14.5312C91.9734 14.5048 91.3676 14.6628 90.8672 14.9262ZM100.349 23.328C100.322 23.2753 100.296 23.1963 100.296 23.1173C100.296 22.9856 100.349 22.8539 100.48 22.7222L101.85 21.6687C101.903 21.616 101.982 21.5633 102.087 21.5897C102.219 21.5897 102.377 21.6687 102.482 21.8267C102.825 22.3271 103.22 22.6958 103.615 22.9856C104.01 23.2753 104.536 23.407 105.142 23.407C105.537 23.407 105.906 23.3543 106.248 23.1963C106.617 23.0646 106.907 22.8802 107.144 22.6168C107.355 22.3798 107.486 22.0901 107.486 21.774C107.486 21.458 107.434 21.1946 107.276 21.0102C107.144 20.8259 106.96 20.6942 106.722 20.6152C106.485 20.5362 106.143 20.4045 105.643 20.2464C105.564 20.2201 105.327 20.1674 104.879 20.0357C103.878 19.7197 103.088 19.3773 102.482 19.0086C101.876 18.6135 101.429 18.1658 101.113 17.6127C100.796 17.0596 100.665 16.4011 100.665 15.611C100.665 14.9789 100.876 14.3731 101.244 13.7674C101.639 13.1616 102.192 12.6612 102.93 12.2924C103.667 11.8974 104.484 11.713 105.458 11.713C106.485 11.713 107.381 11.9237 108.092 12.3451C108.83 12.7665 109.435 13.2669 109.909 13.899C110.041 14.0307 110.067 14.1624 110.067 14.2678C110.067 14.3731 109.988 14.4785 109.857 14.5838L108.566 15.6373C108.434 15.7164 108.355 15.769 108.276 15.769C108.171 15.769 108.066 15.69 107.934 15.5583C107.618 15.1633 107.249 14.8999 106.881 14.6892C106.512 14.5048 106.038 14.3995 105.511 14.3995C104.932 14.3995 104.484 14.5312 104.168 14.7682C103.852 15.0052 103.667 15.3213 103.667 15.69C103.667 16.0061 103.746 16.2168 103.931 16.4011C104.115 16.5855 104.326 16.7172 104.615 16.8225C104.905 16.9542 105.379 17.0596 105.959 17.2439C106.09 17.2703 106.196 17.2966 106.327 17.3493C106.459 17.402 106.617 17.4283 106.775 17.481C108.013 17.8497 108.935 18.4028 109.541 19.1929C110.146 19.9831 110.462 20.8259 110.462 21.774C110.462 22.6695 110.225 23.4333 109.725 24.0917C109.225 24.7239 108.592 25.1979 107.802 25.5403C107.012 25.8564 106.169 26.0407 105.327 26.0144C104.247 26.0144 103.272 25.8037 102.429 25.356C101.587 24.9082 100.902 24.2761 100.375 23.486C100.428 23.486 100.375 23.407 100.349 23.328ZM117.995 12.1081C118.311 12.1081 118.469 12.2661 118.469 12.5822V14.3731C118.469 14.5048 118.416 14.6365 118.337 14.7155C118.232 14.7945 118.127 14.8472 117.969 14.8472H116.415V21.616C116.415 22.1164 116.494 22.4851 116.678 22.8012C116.863 23.0909 117.179 23.2489 117.6 23.2753L117.942 23.3016C118.179 23.328 118.337 23.3806 118.416 23.5123C118.495 23.644 118.522 23.7757 118.495 23.9074V25.4613C118.495 25.83 118.206 26.0144 117.653 26.0144C116.81 26.0144 116.046 25.8564 115.388 25.514C114.729 25.1979 114.202 24.7239 113.834 24.1181C113.465 23.5123 113.281 22.8012 113.281 21.9847V14.8999H112.016C111.885 14.8999 111.779 14.8472 111.7 14.7682C111.595 14.6892 111.569 14.5575 111.569 14.4258V12.6612C111.569 12.5031 111.621 12.3715 111.7 12.2661C111.779 12.1871 111.911 12.1344 112.016 12.1344H113.281V9.8167C113.281 9.65868 113.307 9.55332 113.36 9.47431C113.412 9.3953 113.544 9.34262 113.702 9.28995L115.914 8.6315C115.967 8.60517 115.993 8.60517 116.046 8.60517C116.099 8.60517 116.151 8.6315 116.178 8.65784C116.23 8.68418 116.257 8.71052 116.283 8.76319C116.336 8.84221 116.362 8.97389 116.362 9.10558V12.0817L117.995 12.1081ZM121.445 7.0249H123.342C123.737 7.0249 123.947 7.2356 123.947 7.70968V9.63234C123.947 9.84304 123.895 10.0274 123.816 10.1064C123.737 10.1854 123.552 10.2381 123.342 10.2381H121.445C120.998 10.2381 120.787 10.0274 120.787 9.63234V7.70968C120.76 7.26194 120.998 7.0249 121.445 7.0249ZM120.998 12.1081C121.077 12.0291 121.182 11.9764 121.314 11.9764H123.605C123.737 11.9764 123.816 12.0291 123.921 12.1081C124 12.1871 124.053 12.2924 124.053 12.4241V25.4086C124.053 25.6983 123.921 25.8564 123.631 25.8564H121.34C121.05 25.8564 120.919 25.7247 120.919 25.4086V12.4505C120.866 12.2924 120.919 12.1871 120.998 12.1081ZM129.373 25.751C129.241 25.83 129.083 25.8827 128.952 25.8827H126.95C126.634 25.8827 126.476 25.7247 126.476 25.4086V12.4505C126.476 12.1344 126.634 11.9764 126.95 11.9764H128.425C128.556 11.9764 128.741 12.0291 128.82 12.1344C128.952 12.2398 129.031 12.3715 129.057 12.5295L129.241 14.0834C129.768 13.3196 130.4 12.7929 131.164 12.4241C131.928 12.0554 132.718 11.871 133.561 11.871C134.403 11.871 135.22 12.0817 136.01 12.5031C136.8 12.9246 137.459 13.583 137.985 14.4521C138.486 15.3213 138.749 16.4275 138.749 17.718V25.3823C138.749 25.6983 138.617 25.83 138.328 25.83H136.142C135.826 25.83 135.668 25.6983 135.668 25.3823V17.8234C135.668 17.2966 135.536 16.7962 135.273 16.3485C135.009 15.9007 134.64 15.5056 134.193 15.2159C133.719 14.9262 133.218 14.7945 132.639 14.7945C132.138 14.7945 131.664 14.9262 131.19 15.1896C130.69 15.453 130.321 15.8217 130.005 16.2958C129.689 16.7962 129.531 17.3493 129.531 17.9814V25.356C129.557 25.5403 129.505 25.6457 129.373 25.751ZM153.841 27.1733C153.235 28.2794 152.418 29.0959 151.365 29.6753C150.311 30.2548 149.1 30.5182 147.73 30.5182C146.809 30.5182 145.913 30.3601 145.044 30.0441C144.148 29.728 143.385 29.3066 142.779 28.7799C142.647 28.6745 142.594 28.5692 142.594 28.4638C142.594 28.3848 142.647 28.2794 142.726 28.1478L143.648 26.8309C143.753 26.6992 143.859 26.6202 144.043 26.6202C144.175 26.6202 144.28 26.6728 144.438 26.7519C145.386 27.4103 146.571 27.7527 148.02 27.7527C148.757 27.7527 149.39 27.5947 149.969 27.2523C150.548 26.9362 150.996 26.4885 151.312 25.909C151.628 25.3296 151.813 24.6975 151.813 23.9601V23.9074C151.207 24.5658 150.548 25.0399 149.89 25.3823C149.232 25.6983 148.415 25.8827 147.52 25.8827C146.308 25.8827 145.176 25.593 144.148 24.9872C143.095 24.4078 142.252 23.565 141.62 22.5115C140.988 21.458 140.672 20.2464 140.698 18.9032C140.698 17.639 141.014 16.4538 141.62 15.4003C142.252 14.3205 143.095 13.4513 144.148 12.7929C145.202 12.1344 146.334 11.8184 147.52 11.8184C149.258 11.8184 150.733 12.4768 151.971 13.82L152.155 12.5295C152.181 12.3188 152.234 12.1871 152.313 12.1081C152.392 12.0291 152.524 11.9764 152.682 11.9764H154.42C154.683 11.9764 154.815 12.1344 154.815 12.4505V23.1173C154.736 24.7502 154.42 26.0671 153.841 27.1733ZM151.26 16.7962C150.891 16.1378 150.417 15.611 149.785 15.2423C149.153 14.8472 148.468 14.6628 147.678 14.6628C146.888 14.6628 146.15 14.8735 145.518 15.2423C144.886 15.6373 144.412 16.1641 144.043 16.8225C143.701 17.481 143.516 18.1921 143.516 19.0086C143.516 19.825 143.701 20.5625 144.069 21.2209C144.438 21.8794 144.939 22.3798 145.571 22.7485C146.203 23.1173 146.914 23.3016 147.678 23.3016C148.441 23.3016 149.153 23.1173 149.758 22.7222C150.364 22.3271 150.865 21.8004 151.233 21.1683C151.576 20.5098 151.76 19.7987 151.76 19.0086C151.786 18.1658 151.602 17.4546 151.26 16.7962ZM157.37 12.0027C156.501 12.0027 155.79 12.7139 155.79 13.583C155.79 14.4521 156.501 15.1633 157.37 15.1633C158.239 15.1633 158.95 14.4521 158.95 13.583C158.95 12.7139 158.239 12.0027 157.37 12.0027ZM157.37 14.8472C156.711 14.8472 156.132 14.2678 156.132 13.583C156.132 12.8982 156.711 12.3188 157.37 12.3188C158.028 12.3188 158.608 12.8719 158.608 13.583C158.608 14.2941 158.028 14.8472 157.37 14.8472ZM156.764 12.7402C156.764 12.7402 156.79 12.7139 156.817 12.7139H157.554C157.66 12.7139 157.765 12.7402 157.844 12.7929C157.923 12.8455 157.976 12.9246 158.055 13.0036C158.107 13.0826 158.134 13.1879 158.134 13.2933C158.134 13.3986 158.107 13.4776 158.055 13.583C158.002 13.662 157.923 13.741 157.844 13.7937L158.16 14.4258V14.4785H157.765C157.765 14.4785 157.739 14.4521 157.739 14.4258L157.449 13.8464H157.107V14.3995C157.107 14.4521 157.08 14.4521 157.054 14.4521H156.817C156.764 14.4521 156.764 14.4258 156.764 14.3995V12.7402C156.747 12.7402 156.747 12.7402 156.764 12.7402ZM157.08 13.5567H157.449C157.502 13.5567 157.554 13.5303 157.581 13.504C157.633 13.4776 157.66 13.4513 157.686 13.3986C157.712 13.346 157.739 13.3196 157.739 13.2669C157.739 13.2143 157.712 13.1616 157.686 13.1353C157.66 13.0826 157.633 13.0562 157.581 13.0299C157.528 13.0036 157.502 12.9772 157.449 12.9772H157.08V13.5567Z" fill="#315CFD"/>
</svg>
