<?xml version="1.0" encoding="UTF-8" standalone="no"?>
<svg width="130" height="33" viewBox="0 0 130 33" fill="none" xmlns="http://www.w3.org/2000/svg">
<path fill-rule="evenodd" clip-rule="evenodd" d="M1.12881 9.13127C0.99079 11.2426 1.04808 13.1924 1.09853 15.2238C1.84218 14.5538 2.26912 13.9075 2.29831 13.1552C2.34768 11.8918 2.31182 10.6248 2.31182 9.25998C1.94356 9.21989 1.60589 9.18314 1.12881 9.13127ZM15.5216 9.27457C15.5216 10.5285 15.4997 11.614 15.5281 12.6982C15.5544 13.6919 15.9735 14.5125 16.7003 15.1996C17.0395 13.8332 16.9654 9.98571 16.5557 9.13902C16.2462 9.17959 15.9077 9.22398 15.5216 9.27457ZM11.797 19.161C11.8082 19.3874 11.8184 19.591 11.8279 19.7856C13.2804 19.9262 15.6349 19.8729 16.2642 19.6917C16.7492 20.0681 16.7537 20.1706 16.358 20.5486C15.8514 20.5061 15.3965 20.4409 14.9408 20.435C13.7521 20.4193 12.5627 20.4296 11.3011 20.4296C10.7983 20.8789 10.2658 21.3549 9.71694 21.845C10.2772 22.742 9.6581 23.673 9.78929 24.6293C11.1223 24.4215 12.364 23.511 13.7291 24.2209C13.8362 24.6046 13.9275 24.9324 14.0385 25.3312C14.7387 25.6029 15.4744 25.9062 16.2224 26.1744C17.4279 26.607 17.8308 26.6324 17.8392 28.4411C17.8403 28.6793 17.8698 28.9181 17.8588 29.1553C17.8367 29.6245 17.608 29.9072 17.1946 30.0112C16.751 30.1229 16.3277 29.9676 16.1047 29.6111C15.8989 29.2826 15.9009 28.8031 16.1408 28.4979C16.2679 28.3363 16.4418 28.2133 16.5562 28.108C16.5665 27.9868 16.5863 27.93 16.572 27.8846C16.5245 27.7364 16.4646 27.5924 16.4261 27.4907C14.3922 26.4334 12.2724 26.0506 9.97512 26.0618C9.64785 27.4912 9.8725 28.9295 9.5148 30.2456C10.1613 30.8022 10.1613 30.8022 10.3737 31.5595C10.2744 31.797 10.1561 32.0805 10.0639 32.3015C9.57116 32.5258 9.22775 32.4017 9.00512 32.1745C8.64183 32.2877 8.34049 32.3815 8.0865 32.4606C7.31257 31.6231 7.40758 31.0119 8.42355 30.2486C8.34965 29.8967 8.25665 29.498 8.18477 29.0953C8.13913 28.8392 8.11056 28.5775 8.09985 28.3174C8.07842 27.7879 8.09736 27.2559 8.05219 26.7292C8.032 26.494 7.89724 26.2691 7.81729 26.0476C5.54333 26.096 3.42447 26.4156 1.42344 27.5256C1.40512 27.6788 1.38074 27.8824 1.35901 28.065C1.98855 28.6642 2.10002 29.0018 1.85364 29.5096C1.64094 29.9482 1.27502 30.1178 0.74996 30.0216C0.374253 29.9528 0.00677399 29.6155 0.0187283 29.2142C0.0387557 28.532 0.101477 27.8452 0.221331 27.1744C0.295385 26.7614 0.647805 26.5401 1.03516 26.399C1.9544 26.0641 2.86913 25.7153 3.83542 25.3533C3.92701 25.0324 4.02669 24.6832 4.13474 24.3048C4.6643 23.7937 5.32582 23.9376 5.94543 24.0453C6.49828 24.1412 7.03001 24.3623 7.57277 24.5221C7.7142 24.5638 7.862 24.5827 8.10559 24.632C8.03526 23.7963 7.97037 23.0231 7.9047 22.2391C8.05622 22.1056 8.18586 21.9914 8.32341 21.8703C7.62043 21.5211 7.25451 20.7697 6.4059 20.4563C4.74208 20.3294 2.31054 20.3932 1.54422 20.5986C1.12691 20.1494 1.12675 20.1407 1.47824 19.7616C2.20047 19.7899 2.86432 19.8281 3.52864 19.839C4.32958 19.8521 5.13098 19.8421 5.98952 19.8421C6.01809 19.6106 6.04572 19.3885 6.07056 19.1871C5.84281 18.9679 5.64114 18.7736 5.38172 18.5238C4.07652 18.9041 3.29933 17.8949 2.34175 17.1229H0.856462C0.681805 16.6143 0.787531 16.2056 1.15563 15.7716C0.840471 15.7189 0.605111 15.6796 0.258125 15.6217C0.18345 15.4052 0.0213676 15.1493 0.0181073 14.8913C-0.00393832 13.1426 -0.00781959 11.393 0.0174863 9.64414C0.0254041 9.10291 0.219623 8.58634 0.704627 8.29472C0.984699 8.1264 1.30514 8.02363 1.66066 8.19322C1.98265 8.34706 2.33756 8.42868 2.73608 8.56136C2.91757 7.85213 2.80098 7.14878 2.82085 6.45689C2.8415 5.7421 2.82629 5.02602 2.82644 4.31043C2.82675 3.59484 2.82691 2.87924 2.82691 2.16365C2.82706 1.45458 2.82691 0.745344 2.82691 0H15.0268V8.6102C15.5902 8.41436 16.0641 8.2497 16.5166 8.09252C17.559 8.3827 17.8481 8.74177 17.8591 9.83043C17.8744 11.3676 17.8653 12.9049 17.865 14.442C17.8647 15.5616 17.8282 15.6051 16.8599 15.7488C16.9561 16.1642 17.0539 16.5856 17.1702 17.0876H15.6308C15.0219 17.5715 14.4521 18.0243 13.8193 18.5272H12.5542C12.2776 18.7588 12.0623 18.9389 11.797 19.161Z" fill="#B6D337"/>
<path fill-rule="evenodd" clip-rule="evenodd" d="M58.5023 12.6153C58.7207 12.6153 58.9326 12.6203 59.1396 12.6253C59.5806 12.6358 59.9997 12.6458 60.414 12.6052C61.7914 12.4705 62.8634 11.9184 63.2101 10.3383C63.5794 8.65547 62.9663 7.23335 61.3426 6.80333C60.4312 6.56207 59.4914 6.62257 58.5427 6.68363L58.5023 6.68624V12.6153ZM58.4852 14.4936V22.3136H56.3534V4.82103C56.6701 4.82103 56.9858 4.81915 57.3007 4.81727C58.0172 4.813 58.7298 4.80875 59.4418 4.82676C59.6178 4.83123 59.7942 4.83437 59.9707 4.83751C60.7491 4.85136 61.5306 4.86527 62.2919 4.99365C64.4116 5.35113 65.4354 7.03734 65.6009 8.91955C65.6689 9.69449 65.569 10.4535 65.2938 11.1761C64.8618 12.3122 64.0065 12.9933 62.9201 13.408C62.8355 13.4404 62.7518 13.4748 62.6253 13.5266L62.6248 13.5268C62.5502 13.5574 62.4607 13.5941 62.3473 13.6401C63.481 13.9157 63.8752 14.6747 64.1674 15.5514C64.647 16.9902 65.138 18.425 65.6289 19.8598C65.8608 20.5375 66.0926 21.2152 66.3233 21.8933C66.3508 21.9741 66.3717 22.0573 66.3962 22.1546L66.3962 22.1547L66.3963 22.1548C66.4089 22.205 66.4225 22.2589 66.4384 22.3181H64.1234C64.0889 22.2234 64.0523 22.1257 64.0149 22.0258L64.0149 22.0257C63.9318 21.8038 63.8446 21.5707 63.7663 21.3344C63.5132 20.5696 63.2618 19.8043 63.0103 19.039C62.7369 18.2073 62.4636 17.3755 62.1882 16.5443C62.1379 16.3925 62.0744 16.2452 62.0109 16.0979C61.9808 16.028 61.9507 15.9581 61.922 15.8878C61.57 15.0237 60.9426 14.543 60.0265 14.4978C59.6963 14.4815 59.365 14.4854 59.0094 14.4896H59.0094L59.0092 14.4896C58.8408 14.4916 58.6669 14.4936 58.4852 14.4936ZM33.2035 22.3287L33.7427 19.6418H26.0386C26.0836 19.5738 26.1217 19.513 26.1562 19.4579C26.2213 19.354 26.2739 19.27 26.3368 19.1951C26.8757 18.5535 27.4175 17.9146 27.9632 17.279C28.6914 16.4313 29.4199 15.5837 30.1483 14.7362L30.1495 14.7349L30.1506 14.7336L30.1517 14.7322C32.1028 12.4622 34.0538 10.1921 36.0005 7.91822C36.147 7.74688 36.2792 7.53052 36.3315 7.3132C36.4722 6.72915 36.5937 6.14032 36.7173 5.54138L36.7173 5.54129L36.7173 5.54123L36.7173 5.5412L36.7173 5.54118C36.7638 5.31597 36.8106 5.08932 36.8588 4.86096H25.0704L24.8481 5.92408L24.4882 7.64459H31.8738C31.7558 7.79007 31.6473 7.92545 31.5447 8.05355C31.3384 8.31123 31.1556 8.53942 30.9656 8.76109C29.8126 10.1073 28.659 11.4531 27.5055 12.7989L27.5026 12.8022L27.5018 12.8032L27.4999 12.8053L27.4991 12.8063L27.4989 12.8065L27.4987 12.8068L27.4985 12.807L27.4983 12.8072L27.4981 12.8074L27.4979 12.8077L27.4978 12.8079L27.4976 12.8081L27.4974 12.8083C25.6532 14.9597 23.8091 17.1112 21.9671 19.2646C21.8358 19.4185 21.697 19.6013 21.654 19.7923C21.5162 20.404 21.397 21.0199 21.2756 21.6465C21.2319 21.8724 21.1878 22.0997 21.1426 22.3287H33.2035ZM50.5664 14.4856C50.5678 14.5594 50.5692 14.6326 50.5723 14.705C50.4902 15.9893 50.25 17.2264 49.603 18.3378C49.0976 19.206 48.4125 19.8416 47.3776 20.0021C46.2148 20.1823 45.2969 19.6675 45.0139 18.5049C44.8546 17.8502 44.792 17.14 44.8448 16.468C44.9628 14.9643 45.4245 13.5778 46.5336 12.5017C47.0848 11.9673 47.7443 11.6894 48.5025 11.7737C49.657 11.9022 50.3607 12.6878 50.5383 13.9991C50.5602 14.1603 50.5633 14.3241 50.5664 14.4856ZM43.5529 22.2662L43.9018 20.532C44.7229 21.9365 45.2935 22.4556 46.461 22.6182C48.6851 22.9281 50.6096 22.2905 52.0738 20.4857C53.2308 19.0592 53.8047 17.366 53.9647 15.5442C54.0802 14.2277 54.0976 12.8956 53.5263 11.6466C52.9689 10.4277 52.0927 9.57381 50.7884 9.29906C50.1642 9.16749 49.5089 9.1317 48.8699 9.14681C47.8547 9.17083 46.9668 9.57142 46.2328 10.304C46.1089 10.4277 45.986 10.5524 45.8344 10.7063L45.8334 10.7072L45.8288 10.7119C45.7532 10.7886 45.6705 10.8725 45.577 10.9671L45.9057 9.47788H42.7873C42.1975 12.5718 41.5707 15.6555 40.9428 18.7446L40.9428 18.7447L40.9427 18.7449C40.3415 21.703 39.7392 24.666 39.1675 27.6477H42.4703C42.8306 25.856 43.1891 24.0745 43.5529 22.2662ZM101.649 9.55797H99.5423V10.4128C99.5423 10.9738 99.5425 11.5348 99.5428 12.0959C99.5435 13.7331 99.5442 15.3705 99.5389 17.0077C99.5375 17.4295 99.5279 17.8568 99.4614 18.2714C99.329 19.0984 99.0432 19.8458 98.3003 20.3247C96.7594 21.318 95.1683 20.562 94.9463 18.7172C94.9084 18.4036 94.8987 18.0848 94.8983 17.7682C94.8954 15.8939 94.8957 14.0196 94.8961 12.1452L94.8963 10.3786V9.56863H92.7751V10.3792L92.775 12.0325C92.7749 14.0241 92.7747 16.0156 92.7763 18.0072C92.7763 18.0799 92.7759 18.1527 92.7755 18.2256V18.2257V18.2258V18.2259V18.226V18.2261V18.2262V18.2263V18.2264V18.2265V18.2266C92.7737 18.5247 92.7719 18.8234 92.8018 19.1184C92.9801 20.8875 93.7375 22.0069 95.3074 22.4364C95.6283 22.5243 95.9687 22.5669 96.3016 22.5744C97.5051 22.6016 98.5324 22.218 99.2535 21.1689C99.3187 21.0742 99.3865 20.9814 99.469 20.8684C99.5105 20.8115 99.5558 20.7496 99.6063 20.6797L99.7339 22.309H101.649V9.55797ZM115.942 14.9542H120.872C120.949 13.9638 120.793 13.0629 120.399 12.2125C120.104 11.5771 119.615 11.1678 118.925 11.0512C117.825 10.8652 116.925 11.3367 116.443 12.37C116.069 13.1688 115.929 14.0227 115.942 14.9542ZM122.969 16.6264H115.933C115.933 17.6236 116.049 18.5459 116.498 19.402C117.157 20.6583 118.548 21.1599 120.049 20.8199C120.536 20.7098 121.003 20.5094 121.493 20.2992L121.493 20.2991C121.722 20.2009 121.956 20.1006 122.199 20.0064C122.288 20.3612 122.29 20.7401 122.292 21.1482V21.1483V21.1486C122.293 21.3652 122.294 21.5901 122.308 21.824C122.197 21.8645 122.086 21.9064 121.975 21.9485C121.736 22.039 121.496 22.1301 121.252 22.2087C120.101 22.5782 118.917 22.6877 117.736 22.4751C116.111 22.1829 114.969 21.1964 114.379 19.6274C113.481 17.2394 113.494 14.8112 114.328 12.4107C114.788 11.0842 115.64 10.0483 116.996 9.62499C119.283 8.91114 121.823 9.45698 122.727 12.9228C123.034 14.1034 123.044 15.3216 122.969 16.6264ZM73.9981 14.9593H69.0543L69.0581 14.9147C69.1424 13.928 69.2198 13.0214 69.6759 12.2071C70.0572 11.5263 70.5992 11.081 71.3964 11.0293C72.5173 10.9568 73.2832 11.4407 73.685 12.5147C73.9739 13.287 74.0821 14.0899 73.9981 14.9593ZM75.3638 21.8345V19.8895C75.2678 19.9441 75.1817 19.9937 75.1019 20.0398C74.9493 20.1278 74.8197 20.2025 74.6881 20.2732C73.876 20.7106 73.0243 20.9825 72.0927 20.908C71.1183 20.8297 70.2949 20.4707 69.7504 19.589C69.1944 18.6887 69.1227 17.6845 69.0771 16.6023H76.1593C76.1593 16.4274 76.1613 16.2578 76.1632 16.092L76.1632 16.0914V16.0913C76.1674 15.7353 76.1713 15.3966 76.1551 15.0588C76.1047 13.9998 75.9673 12.9528 75.552 11.9694C75.0826 10.859 74.3627 9.98858 73.2008 9.60835C71.2616 8.97358 68.8386 9.45944 67.7543 11.8167C66.512 14.5178 66.5342 17.2933 67.7051 20.0163C68.2923 21.3822 69.4023 22.192 70.8375 22.4717C71.7578 22.651 72.687 22.5928 73.605 22.4092C74.2311 22.284 74.854 22.1416 75.3638 21.8345ZM113.564 20.5531V22.2254C112.647 22.6048 111.683 22.6643 110.713 22.4611C109.705 22.2499 109.069 21.448 108.952 20.3167C108.921 20.0217 108.922 19.7227 108.922 19.4247L108.922 19.2853C108.921 17.4779 108.921 15.6703 108.921 13.8628L108.921 12.1358V11.302H106.967V9.52856H108.9V6.94476L110.958 6.28691V9.4487C111.452 9.54497 111.934 9.53678 112.414 9.52861C112.795 9.52213 113.175 9.51567 113.559 9.56134V11.2725H111.055C111.045 11.3479 111.033 11.4173 111.022 11.4828L111.022 11.483L111.022 11.4832C111.001 11.6134 110.982 11.728 110.981 11.8427C110.977 14.12 110.973 16.3973 110.984 18.6744C110.986 19.0419 111.038 19.4129 111.103 19.7753C111.241 20.5382 111.658 20.8806 112.406 20.8107C112.666 20.7864 112.922 20.7187 113.188 20.6483C113.311 20.6158 113.436 20.5827 113.564 20.5531ZM85.1473 22.0565V20.0768C85.0075 20.129 84.8756 20.1804 84.7486 20.2298C84.4879 20.3313 84.2478 20.4248 84.0026 20.5011C81.9442 21.1421 80.2707 20.3931 79.6185 18.4448C79.0408 16.719 79.0723 14.9559 79.7141 13.2427C80.2221 11.8864 81.2368 11.238 82.6479 11.2019C83.4746 11.1807 84.2395 11.4295 85.0223 11.7848L85.1544 9.9059C84.5482 9.53092 83.9076 9.45297 83.2705 9.39569C80.593 9.15515 78.4142 10.3364 77.51 13.0157C76.887 14.8616 76.8571 16.7457 77.3804 18.627C77.7864 20.0867 78.5782 21.2733 79.9256 21.959C81.6455 22.8342 83.4038 22.7137 85.1473 22.0565ZM37.5075 9.46513H40.8357L38.2132 22.3406C38.0382 22.3427 37.8631 22.3451 37.6879 22.3476C37.3054 22.3528 36.9227 22.3581 36.5401 22.3606C36.1696 22.363 35.7991 22.3625 35.4104 22.3619H35.4096H35.4089C35.2349 22.3617 35.0572 22.3614 34.8742 22.3614L35.7204 18.2173L37.5075 9.46513ZM129.946 11.4536V9.39957C129.166 9.34167 128.493 9.4691 127.854 9.78394C127.398 10.0083 127.079 10.3774 126.748 10.7605C126.598 10.934 126.446 11.1105 126.277 11.2777V9.56089H124.365V22.324H126.483V21.5103C126.483 20.9083 126.484 20.3064 126.484 19.7044C126.485 18.2125 126.485 16.7205 126.482 15.2285C126.48 14.4488 126.633 13.7052 126.939 12.9957C127.335 12.0768 128.011 11.5168 128.996 11.4081C129.199 11.3856 129.407 11.4058 129.627 11.4271C129.73 11.4371 129.837 11.4474 129.946 11.4536ZM86.2681 9.56788H88.1785L88.303 11.3344C89.4116 9.74845 90.1758 9.32733 91.8624 9.41197V10.4009V11.4025C91.7405 11.4025 91.6238 11.3987 91.5109 11.395C91.2752 11.3874 91.0563 11.3802 90.8419 11.4094C89.8271 11.5473 89.1628 12.1652 88.7794 13.1093C88.4578 13.9014 88.3761 14.7427 88.375 15.5928C88.3734 17.0014 88.3737 18.4101 88.374 19.8187L88.3742 21.471V22.3076H86.2681V9.56788ZM105.639 22.3017H103.562V9.57101H105.639V22.3017ZM41.8161 4.86619C41.5873 5.93926 41.3691 6.96222 41.1462 8.00873H37.8175L38.064 6.85012L38.4861 4.86619H41.8161ZM105.657 7.32318H103.454V4.85838H105.657V7.32318Z" fill="#262222"/>
</svg>
